<svg width="9" height="10" viewBox="0 0 9 10" fill="none" xmlns="http://www.w3.org/2000/svg">
<path fill-rule="evenodd" clip-rule="evenodd" d="M8.05942 0.965406C7.75779 0.630672 7.26876 0.630672 6.96713 0.965406L4.4238 3.78788L1.88047 0.965406C1.57884 0.630672 1.08981 0.630672 0.788179 0.965406C0.48655 1.30014 0.48655 1.84285 0.788179 2.17759L3.33151 5.00006L0.788179 7.82253C0.48655 8.15727 0.48655 8.69998 0.788179 9.03471C1.08981 9.36945 1.57884 9.36945 1.88047 9.03471L4.4238 6.21224L6.96713 9.03471C7.26876 9.36945 7.75779 9.36945 8.05942 9.03471C8.36105 8.69998 8.36105 8.15727 8.05942 7.82253L5.5161 5.00006L8.05942 2.17759C8.36105 1.84285 8.36105 1.30014 8.05942 0.965406Z" fill="black"/>
</svg>
